<svg height="496pt" viewBox="0 0 496.00346 496" width="496pt" xmlns="http://www.w3.org/2000/svg"><path d="m152.003906 496v-80h-88v-104h-56l56-120c0-57.4375 46.558594-104 104-104h40c57.441406 0 104 46.5625 104 104v104l-48 96v104" fill="#ceb2aa"/><path d="m288.003906 296v-104c0-57.4375-46.558594-104-104-104h-16c-57.441406 0-104 46.5625-104 104l-56 120h56v104h88v80h88v-104zm0 0" fill="#e5c7bd"/><path d="m488.003906 408v-48h-19.402344c-2.007812-7.101562-4.917968-13.8125-8.542968-20.054688l11.945312-11.945312-32-32-11.945312 11.945312c-6.238282-3.625-12.949219-6.535156-20.054688-8.542968v-19.402344h-48v19.402344c-7.105468 2.015625-13.832031 4.886718-20.082031 8.519531l-11.917969-11.921875-32 32 11.917969 11.921875c-3.628906 6.246094-6.503906 12.976563-8.519531 20.078125h-19.398438v48h19.398438c2.007812 7.105469 4.921875 13.816406 8.546875 20.058594l-11.945313 11.941406 32 32 11.945313-11.941406c6.238281 3.625 12.949219 6.535156 20.054687 8.542968v19.398438h48v-19.398438c7.105469-2.015624 13.832032-4.886718 20.078125-8.519531l11.921875 11.917969 32-32-11.921875-11.917969c3.632813-6.25 6.503907-12.976562 8.519531-20.082031zm0 0" fill="#b3b6c2"/><path d="m440.003906 384c0 30.929688-25.074218 56-56 56-30.929687 0-56-25.070312-56-56 0-30.925781 25.070313-56 56-56 30.925782 0 56 25.074219 56 56zm0 0" fill="#eef2f9"/><path d="m456.003906 216v-32l-40-40h-64l-40 40v32l32 24v-40l24-24h32l24 24v40zm0 0" fill="#f2a348"/><path d="m344.003906 96 16 16v32h48v-56l-40-40" fill="#f2a348"/><path d="m360.003906 112h48v32h-48zm0 0" fill="#f7c77a"/><path d="m368.003906 56c0 26.511719-21.492187 48-48 48-26.511718 0-48-21.488281-48-48 0-26.507812 21.488282-48 48-48 26.507813 0 48 21.492188 48 48zm0 0" fill="#b3b6c2"/><path d="m336.003906 56c0 8.839844-7.164062 16-16 16-8.835937 0-16-7.160156-16-16 0-8.835938 7.164063-16 16-16 8.835938 0 16 7.164062 16 16zm0 0" fill="#eef2f9"/><path d="m224.003906 192h-18.792968c-4.824219-13.613281-15.589844-24.390625-29.207032-29.207031v-18.792969h-32v18.792969c-13.617187 4.824219-24.390625 15.59375-29.207031 29.207031h-18.792969v32h18.792969c4.824219 13.617188 15.589844 24.394531 29.207031 29.210938v18.789062h32v-18.789062c13.617188-4.824219 24.390625-15.59375 29.207032-29.210938h18.792968zm0 0" fill="#b3b6c2"/><path d="m176.003906 208c0 8.839844-7.164062 16-16 16-8.835937 0-16-7.160156-16-16 0-8.835938 7.164063-16 16-16 8.835938 0 16 7.164062 16 16zm0 0" fill="#eef2f9"/><path d="m160.003906 496h-16v-72h-80c-4.425781 0-8-3.582031-8-8v-96h-48c-2.738281 0-5.28125-1.390625-6.753906-3.703125-1.46875-2.304687-1.65625-5.199219-.496094-7.679687l55.265625-118.421876c.96875-60.929687 50.824219-110.195312 111.984375-110.195312h40c61.757813 0 112 50.242188 112 112h-16c0-52.933594-43.0625-96-96-96h-40c-52.9375 0-96 43.066406-96 96 0 1.167969-.257812 2.328125-.753906 3.386719l-50.6875 108.613281h43.441406c4.421875 0 8 3.585938 8 8v96h80c4.421875 0 8 3.585938 8 8zm0 0"/><path d="m176.003906 280h-32c-4.425781 0-8-3.582031-8-8v-13.445312c-11.6875-5.527344-21.03125-14.871094-26.550781-26.554688h-13.449219c-4.425781 0-8-3.582031-8-8v-32c0-4.414062 3.574219-8 8-8h13.449219c5.519531-11.679688 14.863281-21.023438 26.550781-26.550781v-13.449219c0-4.414062 3.574219-8 8-8h32c4.421875 0 8 3.585938 8 8v13.449219c11.6875 5.527343 21.03125 14.871093 26.550782 26.550781h13.449218c4.421875 0 8 3.585938 8 8v32c0 4.417969-3.578125 8-8 8h-13.449218c-5.519532 11.683594-14.863282 21.027344-26.550782 26.554688v13.445312c0 4.417969-3.578125 8-8 8zm-24-16h16v-10.789062c0-3.386719 2.136719-6.410157 5.328125-7.539063 11.429688-4.046875 20.296875-12.917969 24.34375-24.335937 1.128907-3.199219 4.152344-5.335938 7.535157-5.335938h10.792968v-16h-10.792968c-3.390626 0-6.414063-2.132812-7.535157-5.335938-4.046875-11.414062-12.914062-20.285156-24.34375-24.335937-3.191406-1.125-5.328125-4.152344-5.328125-7.535156v-10.792969h-16v10.792969c0 3.382812-2.136718 6.410156-5.328125 7.535156-11.433593 4.050781-20.296875 12.921875-24.34375 24.335937-1.128906 3.203126-4.152343 5.335938-7.535156 5.335938h-10.792969v16h10.792969c3.390625 0 6.414063 2.136719 7.535156 5.335938 4.046875 11.417968 12.910157 20.289062 24.34375 24.335937 3.191407 1.128906 5.328125 4.152344 5.328125 7.539063zm0 0"/><path d="m98.347656 157.660156 11.3125-11.3125 24 24-11.3125 11.316406zm0 0"/><path d="m186.347656 170.34375 24-24.003906 11.3125 11.316406-24 24zm0 0"/><path d="m186.34375 245.660156 11.316406-11.3125 24 24-11.3125 11.316406zm0 0"/><path d="m98.347656 258.34375 24-24.003906 11.3125 11.3125-24 24.003906zm0 0"/><path d="m160.003906 232c-13.234375 0-24-10.765625-24-24 0-13.230469 10.765625-24 24-24 13.230469 0 24 10.769531 24 24 0 13.234375-10.769531 24-24 24zm0-32c-4.417968 0-8 3.59375-8 8 0 4.410156 3.582032 8 8 8 4.414063 0 8-3.589844 8-8 0-4.40625-3.585937-8-8-8zm0 0"/><path d="m170.347656 138.34375 96-96 11.3125 11.3125-96 96zm0 0"/><path d="m218.34375 186.34375 88-87.996094 11.3125 11.3125-87.996094 87.996094zm0 0"/><path d="m320.003906 112c-30.871094 0-56-25.117188-56-56 0-30.878906 25.128906-56 56-56s56 25.121094 56 56c0 30.882812-25.128906 56-56 56zm0-96c-22.054687 0-40 17.945312-40 40 0 22.058594 17.945313 40 40 40 22.054688 0 40-17.941406 40-40 0-22.054688-17.945312-40-40-40zm0 0"/><path d="m320.003906 80c-13.234375 0-24-10.765625-24-24 0-13.230469 10.765625-24 24-24 13.230469 0 24 10.769531 24 24 0 13.234375-10.769531 24-24 24zm0-32c-4.417968 0-8 3.59375-8 8 0 4.410156 3.582032 8 8 8 4.414063 0 8-3.589844 8-8 0-4.40625-3.585937-8-8-8zm0 0"/><path d="m424.003906 248c-1.214844 0-2.449218-.277344-3.578125-.839844-2.710937-1.359375-4.421875-4.125-4.421875-7.160156v-36.6875l-19.3125-19.3125h-25.375l-19.3125 19.3125v36.6875c0 3.035156-1.710937 5.800781-4.425781 7.160156-2.710937 1.34375-5.957031 1.066406-8.375-.757812l-32-24c-2.015625-1.511719-3.199219-3.878906-3.199219-6.402344v-32c0-2.117188.839844-4.160156 2.34375-5.652344l40-40c1.496094-1.507812 3.527344-2.347656 5.65625-2.347656h64c2.128906 0 4.160156.839844 5.65625 2.347656l40 40c1.503906 1.492188 2.34375 3.535156 2.34375 5.652344v32c0 2.523438-1.183594 4.890625-3.199218 6.402344l-32 24c-1.410157 1.054687-3.105469 1.597656-4.800782 1.597656zm-56-80h32c2.128906 0 4.160156.839844 5.65625 2.347656l24 24c1.503906 1.492188 2.34375 3.535156 2.34375 5.652344v24l16-12v-24.6875l-35.3125-35.3125h-57.375l-35.3125 35.3125v24.6875l16 12v-24c0-2.117188.839844-4.160156 2.34375-5.652344l24-24c1.496094-1.507812 3.527344-2.347656 5.65625-2.347656zm0 0"/><path d="m408.003906 152h-48c-4.425781 0-8-3.582031-8-8v-28.6875l-13.65625-13.65625 11.3125-11.308594 16 16c1.503906 1.492188 2.34375 3.535156 2.34375 5.652344v24h32v-44.6875l-37.65625-37.65625 11.3125-11.308594 40 40c1.503906 1.492188 2.34375 3.535156 2.34375 5.652344v56c0 4.417969-3.578125 8-8 8zm0 0"/><path d="m360.003906 104h48v16h-48zm0 0"/><path d="m408.003906 496h-48c-4.425781 0-8-3.582031-8-8v-13.558594c-3.601562-1.289062-7.144531-2.792968-10.609375-4.519531l-7.734375 7.734375c-3.128906 3.128906-8.183594 3.128906-11.3125 0l-32-32c-3.128906-3.125-3.128906-8.183594 0-11.308594l7.734375-7.738281c-1.726562-3.464844-3.238281-7.007813-4.511719-10.609375h-13.566406c-4.425781 0-8-3.582031-8-8v-48c0-4.414062 3.574219-8 8-8h13.550782c1.289062-3.628906 2.792968-7.175781 4.503906-10.628906l-7.71875-7.714844c-1.496094-1.496094-2.335938-3.535156-2.335938-5.65625 0-2.117188.839844-4.160156 2.34375-5.652344l32-32c3.128906-3.128906 8.183594-3.128906 11.3125 0l7.71875 7.710938c3.457032-1.722656 7-3.226563 10.625-4.503906v-13.554688c0-4.414062 3.574219-8 8-8h48c4.421875 0 8 3.585938 8 8v13.5625c3.597656 1.289062 7.144532 2.792969 10.609375 4.519531l7.734375-7.734375c3.128906-3.128906 8.183594-3.128906 11.3125 0l32 32c3.128906 3.125 3.128906 8.183594 0 11.308594l-7.738281 7.738281c1.730469 3.464844 3.242187 7.007813 4.511719 10.605469h13.570312c4.421875 0 8 3.585938 8 8v48c0 4.417969-3.578125 8-8 8h-13.550781c-1.289063 3.632812-2.792969 7.175781-4.503906 10.632812l7.71875 7.714844c1.496093 1.492188 2.335937 3.535156 2.335937 5.652344 0 2.121094-.839844 4.160156-2.34375 5.65625l-32 32c-3.128906 3.128906-8.183594 3.128906-11.3125 0l-7.71875-7.710938c-3.457031 1.71875-7 3.222657-10.625 4.503907v13.550781c0 4.417969-3.578125 8-8 8zm-40-16h32v-11.398438c0-3.574218 2.375-6.71875 5.824219-7.695312 6.351563-1.800781 12.496094-4.402344 18.238281-7.738281 3.136719-1.820313 7.113282-1.300781 9.671875 1.265625l6.265625 6.257812 20.6875-20.691406-6.265625-6.261719c-2.558593-2.5625-3.085937-6.535156-1.253906-9.671875 3.328125-5.738281 5.925781-11.871094 7.742187-18.25.96875-3.4375 4.113282-5.816406 7.6875-5.816406h11.402344v-32h-11.402344c-3.574218 0-6.726562-2.375-7.695312-5.824219-1.773438-6.253906-4.382812-12.382812-7.773438-18.214843-1.824218-3.136719-1.296874-7.101563 1.261719-9.671876l6.296875-6.289062-20.6875-20.6875-6.289062 6.289062c-2.558594 2.558594-6.535156 3.082032-9.671875 1.265626-5.824219-3.378907-11.945313-5.992188-18.214844-7.769532-3.449219-.976562-5.824219-4.121094-5.824219-7.695312v-11.402344h-32v11.402344c0 3.574218-2.375 6.71875-5.824218 7.695312-6.351563 1.800782-12.496094 4.398438-18.238282 7.734375-3.136718 1.816407-7.113281 1.304688-9.675781-1.261719l-6.261719-6.257812-20.6875 20.6875 6.261719 6.265625c2.5625 2.558594 3.089844 6.535156 1.257813 9.671875-3.328126 5.734375-5.929688 11.871094-7.746094 18.25-.964844 3.4375-4.109375 5.8125-7.6875 5.8125h-11.398438v32h11.398438c3.578125 0 6.730468 2.378906 7.695312 5.824219 1.777344 6.257812 4.386719 12.386719 7.777344 18.21875 1.824219 3.132812 1.296875 7.101562-1.261719 9.671875l-6.296875 6.285156 20.6875 20.691406 6.289063-6.289062c2.558593-2.570313 6.535156-3.089844 9.671875-1.265625 5.824218 3.378906 11.941406 5.992187 18.214844 7.769531 3.449218.976562 5.824218 4.121094 5.824218 7.695312zm0 0"/><path d="m384.003906 448c-35.289062 0-64-28.710938-64-64 0-35.285156 28.710938-64 64-64 35.289063 0 64 28.714844 64 64 0 35.289062-28.710937 64-64 64zm0-112c-26.472656 0-48 21.53125-48 48 0 26.472656 21.527344 48 48 48s48-21.527344 48-48c0-26.46875-21.527344-48-48-48zm0 0"/><path d="m169.675781 276.863281 12.703125-9.714843 104.007813 136.007812-12.703125 9.714844zm0 0"/><path d="m220.949219 231.386719 6.089843-14.796875 136.007813 55.992187-6.09375 14.796875zm0 0"/></svg>